<svg width="477" height="78" viewBox="0 0 477 78" fill="none" xmlns="http://www.w3.org/2000/svg">
<path d="M227.92 4.62088V43.9029H222.965V4.62088H209.309V0.0419922H241.455V4.62088H227.92Z" fill="white"/>
<path d="M258.375 12.0901C261.759 12.0901 264.659 12.9336 267.076 14.5C269.493 16.187 271.306 18.3559 272.514 21.2479C272.998 22.4528 273.36 23.8988 273.481 25.4653C273.602 27.0317 273.481 28.3572 273.119 29.3212H247.016C247.016 32.5746 248.103 35.2255 250.279 37.1535C252.454 39.0814 255.354 40.0454 258.859 40.1659C262.847 40.1659 266.472 39.0814 269.735 36.792L272.152 39.5634C268.043 42.6963 263.693 44.3833 258.859 44.3833C254.025 44.3833 250.037 42.8168 247.016 39.9249C243.995 36.9125 242.424 33.0566 242.424 28.3572C242.424 23.7783 243.874 19.9224 246.895 16.91C249.795 13.6565 253.662 12.0901 258.375 12.0901ZM258.375 16.3075C255.233 16.3075 252.696 17.2715 250.641 19.1994C248.587 21.1274 247.499 23.4168 247.257 26.1882H269.01C269.131 25.1038 268.889 23.8988 268.285 22.5733C267.439 20.6454 266.23 19.0789 264.538 17.9944C262.726 16.91 260.792 16.3075 258.375 16.3075Z" fill="white"/>
<path d="M287.858 0.0415039H283.266V43.9024H287.858V0.0415039Z" fill="white"/>
<path d="M313.472 12.0901C316.856 12.0901 319.756 12.9336 322.173 14.5C324.59 16.187 326.403 18.3559 327.611 21.2479C328.095 22.4528 328.457 23.8988 328.578 25.4653C328.699 27.0317 328.578 28.3572 328.215 29.3212H302.113C302.113 32.5746 303.2 35.2255 305.375 37.1535C307.551 39.0814 310.451 40.0454 313.956 40.1659C317.943 40.1659 321.569 39.0814 324.832 36.792L327.249 39.5634C323.14 42.6963 318.789 44.3833 313.956 44.3833C309.122 44.3833 305.134 42.8168 302.113 39.9249C299.091 36.9125 297.52 33.0566 297.52 28.3572C297.52 23.7783 298.971 19.9224 301.992 16.91C304.892 13.6565 308.759 12.0901 313.472 12.0901ZM313.472 16.3075C310.33 16.3075 307.792 17.2715 305.738 19.1994C303.684 21.1274 302.596 23.4168 302.354 26.1882H324.107C324.228 25.1038 323.986 23.8988 323.382 22.5733C322.536 20.6454 321.327 19.0789 319.635 17.9944C317.823 16.91 315.768 16.3075 313.472 16.3075Z" fill="white"/>
<path d="M349.002 12.0901H349.727C352.144 12.0901 354.44 12.5721 356.736 13.6565C359.032 14.741 360.845 16.187 362.053 17.8739L359.395 20.2839C358.428 18.9584 356.978 17.7534 355.165 16.91C353.352 16.0665 351.54 15.705 349.848 15.705H349.243C347.068 15.705 345.255 16.187 343.805 17.0305C342.355 17.8739 341.63 19.1994 341.63 20.6454C341.63 21.9708 342.113 22.9348 343.08 23.7783C344.047 24.5013 345.739 25.1038 348.397 25.3448L352.144 25.7063C353.594 25.8267 354.923 26.0677 356.011 26.4292C357.098 26.7907 358.186 27.2727 359.274 27.8752C360.361 28.4777 361.207 29.4417 361.811 30.6466C362.416 31.8516 362.657 33.2976 362.657 34.864C362.657 37.6355 361.57 39.9249 359.274 41.6119C356.978 43.2988 354.077 44.1423 350.452 44.2628H349.969C346.947 44.2628 344.168 43.6603 341.63 42.4553C338.971 41.2504 337.159 39.8044 336.071 37.8765L338.73 35.346C339.576 36.792 341.147 37.997 343.201 38.9609C345.376 39.9249 347.552 40.4069 349.848 40.4069H350.089C352.385 40.4069 354.319 39.9249 355.769 38.9609C357.219 37.997 358.065 36.6715 358.065 34.9845C358.065 33.6591 357.703 32.4541 356.978 31.7311C356.253 30.8876 355.527 30.4056 354.561 30.1646C353.715 29.9237 352.506 29.6827 351.177 29.5622L347.552 29.2007C340.422 28.4777 336.917 25.7063 336.917 20.8864C336.917 18.1149 338.005 15.946 340.301 14.3795C342.839 12.9336 345.618 12.0901 349.002 12.0901Z" fill="white"/>
<path d="M386.589 12.0901C389.973 12.0901 392.873 12.9336 395.29 14.5C397.707 16.187 399.52 18.3559 400.728 21.2479C401.212 22.4528 401.574 23.8988 401.695 25.4653C401.816 27.0317 401.695 28.3572 401.333 29.3212H375.23C375.23 32.5746 376.317 35.2255 378.493 37.1535C380.668 39.0814 383.568 40.0454 387.073 40.1659C391.061 40.1659 394.686 39.0814 397.949 36.792L400.366 39.5634C396.257 42.6963 391.907 44.3833 387.073 44.3833C382.239 44.3833 378.251 42.8168 375.23 39.9249C372.209 36.9125 370.638 33.0566 370.638 28.3572C370.638 23.7783 372.088 19.9224 375.109 16.91C378.009 13.6565 381.876 12.0901 386.589 12.0901ZM386.589 16.3075C383.447 16.3075 380.91 17.2715 378.855 19.1994C376.801 21.1274 375.713 23.4168 375.471 26.1882H397.224C397.345 25.1038 397.103 23.8988 396.499 22.5733C395.653 20.6454 394.444 19.0789 392.752 17.9944C391.061 16.91 389.006 16.3075 386.589 16.3075Z" fill="white"/>
<path d="M427.203 12.0901C431.433 12.0901 434.816 13.4156 437.233 16.0665C439.65 18.7174 440.859 22.3323 440.859 27.0317V43.9013H436.387V27.1522C436.387 23.5373 435.541 20.8864 433.729 19.0789C432.037 17.2715 429.62 16.428 426.599 16.428C423.336 16.428 420.677 17.5125 418.744 19.6814C416.81 21.8503 415.843 24.9833 415.843 28.9597V43.9013H411.251V12.5721H414.514L414.756 19.6814C415.964 17.151 417.656 15.223 419.952 14.018C422.127 12.6926 424.544 12.0901 427.203 12.0901Z" fill="white"/>
<path d="M463.221 12.0901H463.946C466.363 12.0901 468.659 12.5721 470.955 13.6565C473.251 14.741 475.064 16.187 476.272 17.8739L473.614 20.2839C472.647 18.9584 471.197 17.7534 469.384 16.91C467.571 16.0665 465.759 15.705 464.067 15.705H463.583C461.408 15.705 459.595 16.187 458.145 17.0305C456.695 17.8739 455.97 19.1994 455.97 20.6454C455.97 21.9708 456.453 22.9348 457.42 23.7783C458.387 24.5013 460.079 25.1038 462.737 25.3448L466.484 25.7063C467.934 25.8268 469.263 26.0677 470.351 26.4292C471.438 26.7907 472.526 27.2727 473.614 27.8752C474.701 28.4777 475.547 29.4417 476.151 30.6466C476.756 31.8516 476.997 33.2976 476.997 34.864C476.997 37.6355 475.91 39.9249 473.614 41.6119C471.317 43.2988 468.417 44.1423 464.792 44.2628H464.308C461.287 44.2628 458.508 43.6603 455.97 42.4553C453.311 41.2504 451.499 39.8044 450.411 37.8765L453.07 35.346C453.916 36.792 455.487 37.997 457.541 38.9609C459.716 39.9249 461.891 40.4069 464.188 40.4069H464.429C466.725 40.4069 468.659 39.9249 470.109 38.9609C471.559 37.997 472.405 36.6715 472.405 34.9845C472.405 33.6591 472.043 32.4541 471.317 31.7311C470.592 30.8876 469.867 30.4056 468.901 30.1646C468.055 29.9237 466.846 29.6827 465.517 29.5622L461.891 29.2007C454.761 28.4777 451.257 25.7063 451.257 20.8864C451.257 18.1149 452.345 15.946 454.641 14.3795C457.058 12.9336 459.837 12.0901 463.221 12.0901Z" fill="white"/>
<path d="M228.882 76.7973C227.07 76.7973 225.499 76.1949 224.29 74.9899C223.082 73.7849 222.478 72.2185 222.478 70.411C222.478 68.6035 223.082 67.0371 224.29 65.8321C225.499 64.6271 227.07 64.0247 228.882 64.0247C230.333 64.0247 231.662 64.3861 232.75 65.1091V67.0371C231.662 66.3141 230.333 65.8321 229.003 65.8321C227.674 65.8321 226.586 66.3141 225.74 67.1576C224.894 68.0011 224.411 69.0855 224.411 70.411C224.411 71.7365 224.894 72.8209 225.74 73.6644C226.586 74.5079 227.674 74.8694 228.882 74.8694C230.091 74.8694 231.178 74.5079 231.904 73.7849V69.3265H233.837V74.6284C233.354 75.2309 232.629 75.7129 231.783 76.0744C230.816 76.5563 229.849 76.7973 228.882 76.7973Z" fill="white"/>
<path d="M249.3 76.5571H240.72V64.2664H242.653V74.7496H249.3V76.5571Z" fill="white"/>
<path d="M265.033 74.9899C263.825 76.1949 262.375 76.7973 260.562 76.7973C258.749 76.7973 257.299 76.1949 256.091 74.9899C254.882 73.7849 254.278 72.2185 254.278 70.411C254.278 68.6035 254.882 67.0371 256.091 65.8321C257.299 64.6271 258.749 64.0247 260.562 64.0247C262.375 64.0247 263.825 64.6271 265.033 65.8321C266.242 67.0371 266.846 68.6035 266.846 70.411C266.846 72.2185 266.242 73.6644 265.033 74.9899ZM257.42 73.6644C258.266 74.5079 259.233 74.9899 260.441 74.9899C261.65 74.9899 262.737 74.5079 263.462 73.6644C264.308 72.8209 264.671 71.7365 264.671 70.411C264.671 69.0855 264.308 68.0011 263.462 67.1576C262.616 66.3141 261.65 65.8321 260.441 65.8321C259.233 65.8321 258.145 66.3141 257.42 67.1576C256.574 68.0011 256.212 69.0855 256.212 70.411C256.212 71.7365 256.695 72.8209 257.42 73.6644Z" fill="white"/>
<path d="M279.77 76.5571H273.728V64.2664H279.286C280.374 64.2664 281.341 64.5073 281.945 65.1098C282.549 65.5918 282.912 66.4353 282.912 67.2788C282.912 67.8813 282.791 68.3633 282.429 68.8452C282.066 69.3272 281.703 69.5682 281.22 69.8092C281.945 69.9297 282.67 70.2912 283.154 70.8937C283.637 71.4962 283.879 72.2192 283.879 73.0626C283.879 74.1471 283.516 74.9906 282.791 75.5931C282.066 76.1956 280.978 76.5571 279.77 76.5571ZM275.661 65.9533V69.0862H279.045C279.649 69.0862 280.253 68.9657 280.616 68.7247C280.978 68.4838 281.099 68.0018 281.099 67.5198C281.099 67.0378 280.978 66.5558 280.616 66.3148C280.253 66.0738 279.77 65.9533 279.045 65.9533H275.661ZM275.661 70.8937V74.7496H279.407C280.132 74.7496 280.737 74.6291 281.22 74.2676C281.703 73.9061 281.824 73.4241 281.824 72.8216C281.824 72.2192 281.583 71.7372 281.22 71.3757C280.737 71.0142 280.253 70.8937 279.407 70.8937H275.661Z" fill="white"/>
<path d="M291.473 76.5555H289.418L294.857 64.1443H296.669L302.107 76.5555H300.053L298.724 73.5431H292.802L291.473 76.5555ZM295.702 66.5542L293.406 71.7356H297.878L295.702 66.5542Z" fill="white"/>
<path d="M316.73 76.5571H308.15V64.2664H310.205V74.7496H316.73V76.5571Z" fill="white"/>
<path d="M343.456 76.7973C341.523 76.7973 340.073 76.3154 338.864 75.4719V73.4234C339.348 73.9054 340.073 74.2669 340.919 74.5079C341.765 74.8694 342.611 74.9899 343.456 74.9899C344.302 74.9899 345.027 74.8694 345.511 74.5079C345.994 74.1464 346.357 73.7849 346.357 73.1824C346.357 72.7004 346.236 72.339 345.753 72.098C345.632 71.9775 345.39 71.857 345.148 71.7365C344.786 71.616 344.182 71.375 343.456 71.134L343.215 71.0135C342.49 70.7725 342.006 70.652 341.644 70.5315C341.281 70.411 340.919 70.17 340.435 69.929C339.589 69.447 339.106 68.6035 339.106 67.3986C339.106 66.4346 339.469 65.5911 340.314 64.9886C341.16 64.3861 342.248 64.0247 343.577 64.0247C345.027 64.0247 346.357 64.3861 347.565 64.9886V66.9166C346.357 66.1936 345.027 65.7116 343.698 65.7116C342.852 65.7116 342.248 65.8321 341.765 66.1936C341.281 66.4346 341.16 66.9166 341.16 67.2781C341.16 67.6396 341.402 68.0011 341.885 68.3626C342.006 68.3626 342.006 68.483 342.127 68.483C342.248 68.483 342.369 68.6035 342.611 68.6035C342.852 68.6035 342.852 68.724 342.973 68.724L344.423 69.0855C345.269 69.3265 345.994 69.688 346.719 70.0495C347.807 70.652 348.411 71.616 348.411 72.9414C348.411 74.0259 347.928 74.9899 347.082 75.5924C345.873 76.4359 344.786 76.7973 343.456 76.7973Z" fill="white"/>
<path d="M364.964 74.9899C363.755 76.1949 362.305 76.7973 360.492 76.7973C358.68 76.7973 357.23 76.1949 356.021 74.9899C354.813 73.7849 354.208 72.2185 354.208 70.411C354.208 68.6035 354.813 67.0371 356.021 65.8321C357.23 64.6271 358.68 64.0247 360.492 64.0247C362.305 64.0247 363.755 64.6271 364.964 65.8321C366.172 67.0371 366.777 68.6035 366.777 70.411C366.777 72.2185 366.172 73.6644 364.964 74.9899ZM357.471 73.6644C358.317 74.5079 359.284 74.9899 360.492 74.9899C361.701 74.9899 362.789 74.5079 363.514 73.6644C364.36 72.8209 364.722 71.7365 364.722 70.411C364.722 69.0855 364.36 68.0011 363.514 67.1576C362.668 66.3141 361.701 65.8321 360.492 65.8321C359.284 65.8321 358.196 66.3141 357.471 67.1576C356.625 68.0011 356.263 69.0855 356.263 70.411C356.263 71.7365 356.625 72.8209 357.471 73.6644Z" fill="white"/>
<path d="M382.116 76.5571H373.657V64.2664H375.59V74.7496H382.116V76.5571Z" fill="white"/>
<path d="M388.281 71.3757V64.2664H390.215V71.4962C390.215 72.5807 390.457 73.5446 391.061 74.1471C391.665 74.7496 392.39 75.1111 393.478 75.1111C394.566 75.1111 395.291 74.7496 395.895 74.1471C396.499 73.5446 396.741 72.7012 396.741 71.4962V64.2664H398.674V71.3757C398.674 73.0626 398.191 74.3881 397.224 75.3521C396.257 76.3161 395.049 76.7981 393.478 76.7981C391.907 76.7981 390.698 76.3161 389.732 75.3521C388.765 74.3881 388.281 73.0626 388.281 71.3757Z" fill="white"/>
<path d="M404.712 65.9533V64.2664H414.863V65.9533H410.754V76.5571H408.821V65.9533H404.712Z" fill="white"/>
<path d="M423.2 64.2664H421.267V76.5571H423.2V64.2664Z" fill="white"/>
<path d="M440.968 74.9899C439.76 76.1949 438.31 76.7973 436.497 76.7973C434.684 76.7973 433.234 76.1949 432.026 74.9899C430.817 73.7849 430.213 72.2185 430.213 70.411C430.213 68.6035 430.817 67.0371 432.026 65.8321C433.234 64.6271 434.684 64.0247 436.497 64.0247C438.31 64.0247 439.76 64.6271 440.968 65.8321C442.177 67.0371 442.781 68.6035 442.781 70.411C442.781 72.2185 442.177 73.6644 440.968 74.9899ZM433.355 73.6644C434.201 74.5079 435.168 74.9899 436.376 74.9899C437.584 74.9899 438.672 74.5079 439.397 73.6644C440.243 72.8209 440.606 71.7365 440.606 70.411C440.606 69.0855 440.243 68.0011 439.397 67.1576C438.551 66.3141 437.584 65.8321 436.376 65.8321C435.168 65.8321 434.08 66.3141 433.355 67.1576C432.509 68.0011 432.146 69.0855 432.146 70.411C432.146 71.7365 432.509 72.8209 433.355 73.6644Z" fill="white"/>
<path d="M451.47 76.5571H449.536V64.2664H451.228L458.237 73.1831V64.2664H460.171V76.5571H458.479L451.47 67.6403V76.5571Z" fill="white"/>
<path d="M471.305 76.7973C469.371 76.7973 467.921 76.3154 466.713 75.4719V73.4234C467.196 73.9054 467.921 74.2669 468.767 74.5079C469.613 74.8694 470.459 74.9899 471.305 74.9899C472.151 74.9899 472.876 74.8694 473.359 74.5079C473.842 74.1464 474.205 73.7849 474.205 73.1824C474.205 72.7004 474.084 72.339 473.601 72.098C473.48 71.9775 473.238 71.857 472.997 71.7365C472.634 71.616 472.03 71.375 471.305 71.134L471.063 71.0135C470.338 70.7725 469.855 70.652 469.492 70.5315C469.129 70.411 468.767 70.17 468.284 69.929C467.438 69.447 466.954 68.6035 466.954 67.3986C466.954 66.4346 467.317 65.5911 468.163 64.9886C469.009 64.3861 470.096 64.0247 471.426 64.0247C472.876 64.0247 474.205 64.3861 475.413 64.9886V66.9166C474.205 66.1936 472.876 65.7116 471.546 65.7116C470.7 65.7116 470.096 65.8321 469.613 66.1936C469.129 66.4346 469.009 66.9166 469.009 67.2781C469.009 67.6396 469.25 68.0011 469.734 68.3626C469.855 68.3626 469.855 68.483 469.975 68.483C470.096 68.483 470.217 68.6035 470.459 68.6035C470.7 68.6035 470.7 68.724 470.821 68.724L472.271 69.0855C473.117 69.3265 473.842 69.688 474.568 70.0495C475.655 70.652 476.259 71.616 476.259 72.9414C476.259 74.0259 475.776 74.9899 474.93 75.5924C473.722 76.4359 472.634 76.7973 471.305 76.7973Z" fill="white"/>
<path fill-rule="evenodd" clip-rule="evenodd" d="M129.434 1.84937L129.916 1.96986C129.795 1.84937 129.554 1.84937 129.434 1.84937Z" fill="#03A65A"/>
<path fill-rule="evenodd" clip-rule="evenodd" d="M5.55859 54.2649C5.80023 54.6264 6.16269 54.8674 6.52515 55.2289C6.16269 54.9879 5.80023 54.6264 5.55859 54.2649Z" fill="#03A65A"/>
<path fill-rule="evenodd" clip-rule="evenodd" d="M123.033 10.0414C143.214 9.55944 160.858 11.2464 171.251 14.2588C161.22 8.71596 147.444 4.49856 131.371 2.08862C122.67 5.58304 119.166 8.83646 123.033 10.0414Z" fill="#03A65A"/>
<path fill-rule="evenodd" clip-rule="evenodd" d="M3.51356 51.734C3.27256 51.3725 3.15207 51.1315 2.91107 50.77C3.03157 51.1315 3.27256 51.3725 3.51356 51.734Z" fill="#03A65A"/>
<path fill-rule="evenodd" clip-rule="evenodd" d="M177.775 18.4776C168.711 14.0192 145.63 11.7297 119.648 13.2962C87.2607 15.2241 62.2454 22.454 64.0581 29.3223C65.8708 35.9496 91.732 39.926 122.427 38.4801C121.098 38.6006 119.768 38.7211 118.439 38.7211C81.7017 40.89 50.1607 36.4316 48.1063 28.5993C46.052 20.8875 74.0884 12.6937 110.584 10.5248C112.759 7.99432 119.889 4.37941 129.074 1.84897C117.835 0.282507 105.629 -0.319978 92.6988 0.16201C40.8555 1.96947 -0.715738 20.6465 0.00934273 41.9745C0.130189 44.7459 0.976117 47.5174 2.42628 50.0478C9.31454 57.6391 36.1425 62.5795 68.5294 61.736C106.838 60.6515 138.741 51.8553 139.708 41.9745C140.554 32.5757 112.518 25.5869 76.2636 25.9484C77.8346 25.8279 79.4057 25.8279 80.9767 25.8279C124.24 24.6229 158.802 32.8167 157.714 43.9024C156.748 53.6627 129.315 62.459 93.5447 65.3509C91.1278 68.8453 84.3604 73.1832 75.2969 77.0391C81.8226 77.4006 88.4692 77.4006 95.3574 77.2801C147.322 75.4727 188.893 56.7956 188.168 35.4676C188.168 29.2018 184.421 23.4179 177.775 18.4776Z" fill="#03A65A"/>
<path fill-rule="evenodd" clip-rule="evenodd" d="M4.84348 53.5431C4.60249 53.1816 4.36149 52.8201 4 52.5791C4.36149 52.8201 4.60249 53.1816 4.84348 53.5431Z" fill="#03A65A"/>
<path fill-rule="evenodd" clip-rule="evenodd" d="M74.823 77.0379C73.494 76.9174 72.165 76.9174 70.8359 76.7969C72.165 76.9174 73.494 76.9174 74.823 77.0379Z" fill="#03A65A"/>
<path fill-rule="evenodd" clip-rule="evenodd" d="M76.6266 66.1952C46.6566 66.9182 20.9163 63.1828 8.5899 57.158C20.1912 67.2797 42.7895 74.5095 70.1009 76.6785C78.1976 71.9791 80.9771 67.8822 76.6266 66.1952Z" fill="#03A65A"/>
<path fill-rule="evenodd" clip-rule="evenodd" d="M8.23683 56.9147C7.87436 56.5532 7.5119 56.3122 7.27026 55.9507C7.63272 56.3122 7.87436 56.6737 8.23683 56.9147Z" fill="#03A65A"/>
</svg>
