<svg width="185" height="30" viewBox="0 0 185 30" fill="none" xmlns="http://www.w3.org/2000/svg">
<path d="M88.3975 1.79271V17.0277H86.4759V1.79271H81.1797V0.0168457H93.6468V1.79271H88.3975Z" fill="#232624"/>
<path d="M100.21 4.68921C101.522 4.68921 102.647 5.01634 103.585 5.62387C104.522 6.27814 105.225 7.11933 105.694 8.24093C105.881 8.70826 106.022 9.26906 106.069 9.87659C106.116 10.4841 106.069 10.9982 105.928 11.372H95.8044C95.8044 12.6338 96.2263 13.662 97.0699 14.4097C97.9135 15.1574 99.0384 15.5313 100.398 15.578C101.944 15.578 103.35 15.1574 104.616 14.2695L105.553 15.3444C103.96 16.5594 102.272 17.2137 100.398 17.2137C98.5228 17.2137 96.9762 16.6062 95.8044 15.4846C94.6327 14.3162 94.0234 12.8208 94.0234 10.9982C94.0234 9.22232 94.5859 7.72686 95.7576 6.55853C96.8824 5.29674 98.3822 4.68921 100.21 4.68921ZM100.21 6.32487C98.9915 6.32487 98.0073 6.69873 97.2105 7.44646C96.4137 8.19419 95.9919 9.08212 95.8982 10.157H104.335C104.381 9.73639 104.288 9.26906 104.053 8.75499C103.725 8.00726 103.257 7.39973 102.6 6.97913C101.897 6.55853 101.147 6.32487 100.21 6.32487Z" fill="#232624"/>
<path d="M111.644 0.0158691H109.863V17.0267H111.644V0.0158691Z" fill="#232624"/>
<path d="M121.577 4.68921C122.89 4.68921 124.014 5.01634 124.952 5.62387C125.889 6.27814 126.592 7.11933 127.061 8.24093C127.248 8.70826 127.389 9.26906 127.436 9.87659C127.483 10.4841 127.436 10.9982 127.295 11.372H117.172C117.172 12.6338 117.593 13.662 118.437 14.4097C119.281 15.1574 120.406 15.5313 121.765 15.578C123.311 15.578 124.718 15.1574 125.983 14.2695L126.92 15.3444C125.327 16.5594 123.64 17.2137 121.765 17.2137C119.89 17.2137 118.343 16.6062 117.172 15.4846C116 14.3162 115.391 12.8208 115.391 10.9982C115.391 9.22232 115.953 7.72686 117.125 6.55853C118.25 5.29674 119.749 4.68921 121.577 4.68921ZM121.577 6.32487C120.359 6.32487 119.374 6.69873 118.578 7.44646C117.781 8.19419 117.359 9.08212 117.265 10.157H125.702C125.749 9.73639 125.655 9.26906 125.421 8.75499C125.092 8.00726 124.624 7.39973 123.968 6.97913C123.265 6.55853 122.468 6.32487 121.577 6.32487Z" fill="#232624"/>
<path d="M135.359 4.68921H135.64C136.577 4.68921 137.468 4.87614 138.358 5.29674C139.249 5.71734 139.952 6.27814 140.421 6.9324L139.389 7.86706C139.014 7.353 138.452 6.88567 137.749 6.55853C137.046 6.2314 136.343 6.0912 135.687 6.0912H135.452C134.609 6.0912 133.906 6.27814 133.343 6.60527C132.781 6.9324 132.5 7.44647 132.5 8.00726C132.5 8.52133 132.687 8.89519 133.062 9.22232C133.437 9.50272 134.093 9.73639 135.124 9.82986L136.577 9.97005C137.14 10.0168 137.655 10.1103 138.077 10.2505C138.499 10.3907 138.921 10.5776 139.343 10.8113C139.764 11.0449 140.092 11.4188 140.327 11.8861C140.561 12.3534 140.655 12.9142 140.655 13.5218C140.655 14.5966 140.233 15.4846 139.343 16.1388C138.452 16.7931 137.327 17.1202 135.921 17.167H135.734C134.562 17.167 133.484 16.9333 132.5 16.466C131.469 15.9986 130.766 15.4378 130.344 14.6901L131.375 13.7087C131.703 14.2695 132.312 14.7368 133.109 15.1107C133.953 15.4846 134.796 15.6715 135.687 15.6715H135.781C136.671 15.6715 137.421 15.4846 137.983 15.1107C138.546 14.7368 138.874 14.2228 138.874 13.5685C138.874 13.0544 138.733 12.5871 138.452 12.3067C138.171 11.9796 137.89 11.7926 137.515 11.6992C137.187 11.6057 136.718 11.5122 136.202 11.4655L134.796 11.3253C132.031 11.0449 130.672 9.97005 130.672 8.10073C130.672 7.02587 131.094 6.18467 131.984 5.57714C132.968 5.01634 134.046 4.68921 135.359 4.68921Z" fill="#232624"/>
<path d="M149.937 4.68921C151.249 4.68921 152.374 5.01634 153.311 5.62387C154.249 6.27814 154.952 7.11933 155.42 8.24093C155.608 8.70826 155.748 9.26906 155.795 9.87659C155.842 10.4841 155.795 10.9982 155.655 11.372H145.531C145.531 12.6338 145.953 13.662 146.796 14.4097C147.64 15.1574 148.765 15.5313 150.124 15.578C151.671 15.578 153.077 15.1574 154.342 14.2695L155.28 15.3444C153.686 16.5594 151.999 17.2137 150.124 17.2137C148.249 17.2137 146.703 16.6062 145.531 15.4846C144.359 14.3162 143.75 12.8208 143.75 10.9982C143.75 9.22232 144.312 7.72686 145.484 6.55853C146.609 5.29674 148.109 4.68921 149.937 4.68921ZM149.937 6.32487C148.718 6.32487 147.734 6.69873 146.937 7.44646C146.14 8.19419 145.718 9.08212 145.625 10.157H154.061C154.108 9.73639 154.014 9.26906 153.78 8.75499C153.452 8.00726 152.983 7.39973 152.327 6.97913C151.671 6.55853 150.874 6.32487 149.937 6.32487Z" fill="#232624"/>
<path d="M165.687 4.68921C167.327 4.68921 168.639 5.20327 169.577 6.2314C170.514 7.25953 170.983 8.66153 170.983 10.4841V17.0268H169.249V10.5309C169.249 9.12886 168.921 8.10073 168.218 7.39973C167.561 6.69873 166.624 6.3716 165.452 6.3716C164.187 6.3716 163.156 6.7922 162.406 7.6334C161.656 8.47459 161.281 9.68966 161.281 11.2319V17.0268H159.5V4.87614H160.765L160.859 7.6334C161.328 6.652 161.984 5.90427 162.875 5.43694C163.718 4.92287 164.656 4.68921 165.687 4.68921Z" fill="#232624"/>
<path d="M179.656 4.68921H179.937C180.874 4.68921 181.765 4.87614 182.655 5.29674C183.546 5.71734 184.249 6.27814 184.717 6.9324L183.686 7.86706C183.311 7.353 182.749 6.88567 182.046 6.55853C181.343 6.2314 180.64 6.0912 179.984 6.0912H179.796C178.953 6.0912 178.25 6.27814 177.687 6.60527C177.125 6.9324 176.843 7.44647 176.843 8.00726C176.843 8.52133 177.031 8.89519 177.406 9.22232C177.781 9.50272 178.437 9.73639 179.468 9.82986L180.921 9.97005C181.483 10.0168 181.999 10.1103 182.421 10.2505C182.843 10.3907 183.264 10.5776 183.686 10.8113C184.108 11.0449 184.436 11.4188 184.671 11.8861C184.905 12.3534 184.999 12.9142 184.999 13.5218C184.999 14.5966 184.577 15.4846 183.686 16.1388C182.796 16.7931 181.671 17.1202 180.265 17.167H180.077C178.906 17.167 177.828 16.9333 176.843 16.466C175.812 15.9986 175.109 15.4378 174.688 14.6901L175.719 13.7087C176.047 14.2695 176.656 14.7368 177.453 15.1107C178.296 15.4846 179.14 15.6715 180.031 15.6715H180.124C181.015 15.6715 181.765 15.4846 182.327 15.1107C182.89 14.7368 183.218 14.2228 183.218 13.5685C183.218 13.0544 183.077 12.5871 182.796 12.3067C182.515 11.9796 182.233 11.7926 181.858 11.6992C181.53 11.6057 181.062 11.5122 180.546 11.4655L179.14 11.3253C176.375 11.0449 175.016 9.97005 175.016 8.10073C175.016 7.02587 175.437 6.18467 176.328 5.57714C177.265 5.01634 178.343 4.68921 179.656 4.68921Z" fill="#232624"/>
<path d="M88.7692 29.7848C88.0662 29.7848 87.4569 29.5511 86.9882 29.0838C86.5195 28.6164 86.2852 28.0089 86.2852 27.3079C86.2852 26.6069 86.5195 25.9994 86.9882 25.5321C87.4569 25.0647 88.0662 24.8311 88.7692 24.8311C89.3316 24.8311 89.8472 24.9713 90.269 25.2517V25.9994C89.8472 25.719 89.3316 25.5321 88.8161 25.5321C88.3005 25.5321 87.8787 25.719 87.5506 26.0461C87.2225 26.3732 87.0351 26.7938 87.0351 27.3079C87.0351 27.822 87.2225 28.2426 87.5506 28.5697C87.8787 28.8968 88.3005 29.037 88.7692 29.037C89.2379 29.037 89.6597 28.8968 89.9409 28.6164V26.8873H90.6908V28.9436C90.5033 29.1772 90.2221 29.3642 89.894 29.5044C89.5191 29.6913 89.1441 29.7848 88.7692 29.7848Z" fill="#232624"/>
<path d="M96.6871 29.6918H93.3594V24.925H94.1093V28.9908H96.6871V29.6918Z" fill="#232624"/>
<path d="M102.789 29.0838C102.32 29.5511 101.757 29.7848 101.054 29.7848C100.351 29.7848 99.7889 29.5511 99.3202 29.0838C98.8515 28.6164 98.6172 28.0089 98.6172 27.3079C98.6172 26.6069 98.8515 25.9994 99.3202 25.5321C99.7889 25.0647 100.351 24.8311 101.054 24.8311C101.757 24.8311 102.32 25.0647 102.789 25.5321C103.257 25.9994 103.492 26.6069 103.492 27.3079C103.492 28.0089 103.257 28.5697 102.789 29.0838ZM99.8358 28.5697C100.164 28.8968 100.539 29.0838 101.007 29.0838C101.476 29.0838 101.898 28.8968 102.179 28.5697C102.507 28.2426 102.648 27.822 102.648 27.3079C102.648 26.7938 102.507 26.3732 102.179 26.0461C101.851 25.719 101.476 25.5321 101.007 25.5321C100.539 25.5321 100.117 25.719 99.8358 26.0461C99.5077 26.3732 99.3671 26.7938 99.3671 27.3079C99.3671 27.822 99.5546 28.2426 99.8358 28.5697Z" fill="#232624"/>
<path d="M108.504 29.6918H106.16V24.925H108.316C108.738 24.925 109.113 25.0185 109.347 25.2522C109.582 25.4391 109.722 25.7662 109.722 26.0934C109.722 26.327 109.675 26.514 109.535 26.7009C109.394 26.8878 109.253 26.9813 109.066 27.0748C109.347 27.1215 109.628 27.2617 109.816 27.4954C110.003 27.729 110.097 28.0094 110.097 28.3366C110.097 28.7572 109.957 29.0843 109.675 29.318C109.394 29.5516 108.972 29.6918 108.504 29.6918ZM106.91 25.5793V26.7944H108.222C108.457 26.7944 108.691 26.7476 108.832 26.6542C108.972 26.5607 109.019 26.3738 109.019 26.1868C109.019 25.9999 108.972 25.813 108.832 25.7195C108.691 25.626 108.504 25.5793 108.222 25.5793H106.91ZM106.91 27.4954V28.9908H108.363C108.644 28.9908 108.879 28.9441 109.066 28.8039C109.253 28.6637 109.3 28.4768 109.3 28.2431C109.3 28.0094 109.207 27.8225 109.066 27.6823C108.879 27.5421 108.691 27.4954 108.363 27.4954H106.91Z" fill="#232624"/>
<path d="M113.043 29.6912H112.246L114.355 24.8777H115.058L117.167 29.6912H116.371L115.855 28.5229H113.558L113.043 29.6912ZM114.683 25.8123L113.793 27.8219H115.527L114.683 25.8123Z" fill="#232624"/>
<path d="M122.839 29.6918H119.512V24.925H120.308V28.9908H122.839V29.6918Z" fill="#232624"/>
<path d="M133.203 29.7848C132.453 29.7848 131.89 29.5978 131.422 29.2707V28.4762C131.609 28.6632 131.89 28.8034 132.219 28.8968C132.547 29.037 132.875 29.0838 133.203 29.0838C133.531 29.0838 133.812 29.037 134 28.8968C134.187 28.7566 134.328 28.6164 134.328 28.3828C134.328 28.1958 134.281 28.0556 134.093 27.9622C134.046 27.9154 133.953 27.8687 133.859 27.822C133.718 27.7752 133.484 27.6818 133.203 27.5883L133.109 27.5416C132.828 27.4481 132.64 27.4014 132.5 27.3546C132.359 27.3079 132.219 27.2144 132.031 27.121C131.703 26.934 131.515 26.6069 131.515 26.1396C131.515 25.7657 131.656 25.4386 131.984 25.2049C132.312 24.9713 132.734 24.8311 133.25 24.8311C133.812 24.8311 134.328 24.9713 134.796 25.2049V25.9526C134.328 25.6722 133.812 25.4853 133.297 25.4853C132.968 25.4853 132.734 25.5321 132.547 25.6723C132.359 25.7657 132.312 25.9527 132.312 26.0928C132.312 26.233 132.406 26.3732 132.593 26.5134C132.64 26.5134 132.64 26.5602 132.687 26.5602C132.734 26.5602 132.781 26.6069 132.875 26.6069C132.968 26.6069 132.968 26.6536 133.015 26.6536L133.578 26.7938C133.906 26.8873 134.187 27.0275 134.468 27.1677C134.89 27.4014 135.124 27.7752 135.124 28.2893C135.124 28.7099 134.937 29.0838 134.609 29.3174C134.14 29.6446 133.718 29.7848 133.203 29.7848Z" fill="#232624"/>
<path d="M141.546 29.0838C141.078 29.5511 140.515 29.7848 139.812 29.7848C139.109 29.7848 138.547 29.5511 138.078 29.0838C137.609 28.6164 137.375 28.0089 137.375 27.3079C137.375 26.6069 137.609 25.9994 138.078 25.5321C138.547 25.0647 139.109 24.8311 139.812 24.8311C140.515 24.8311 141.078 25.0647 141.546 25.5321C142.015 25.9994 142.249 26.6069 142.249 27.3079C142.249 28.0089 142.015 28.5697 141.546 29.0838ZM138.641 28.5697C138.969 28.8968 139.344 29.0838 139.812 29.0838C140.281 29.0838 140.703 28.8968 140.984 28.5697C141.312 28.2426 141.453 27.822 141.453 27.3079C141.453 26.7938 141.312 26.3732 140.984 26.0461C140.656 25.719 140.281 25.5321 139.812 25.5321C139.344 25.5321 138.922 25.719 138.641 26.0461C138.312 26.3732 138.172 26.7938 138.172 27.3079C138.172 27.822 138.312 28.2426 138.641 28.5697Z" fill="#232624"/>
<path d="M148.199 29.6918H144.918V24.925H145.668V28.9908H148.199V29.6918Z" fill="#232624"/>
<path d="M150.59 27.6823V24.925H151.34V27.729C151.34 28.1496 151.433 28.5235 151.668 28.7572C151.902 28.9908 152.183 29.131 152.605 29.131C153.027 29.131 153.308 28.9908 153.543 28.7572C153.777 28.5235 153.871 28.1964 153.871 27.729V24.925H154.621V27.6823C154.621 28.3366 154.433 28.8506 154.058 29.2245C153.683 29.5984 153.215 29.7853 152.605 29.7853C151.996 29.7853 151.527 29.5984 151.152 29.2245C150.777 28.8506 150.59 28.3366 150.59 27.6823Z" fill="#232624"/>
<path d="M156.961 25.5793V24.925H160.898V25.5793H159.304V29.6918H158.554V25.5793H156.961Z" fill="#232624"/>
<path d="M164.133 24.925H163.383V29.6918H164.133V24.925Z" fill="#232624"/>
<path d="M171.024 29.0838C170.555 29.5511 169.993 29.7848 169.29 29.7848C168.587 29.7848 168.024 29.5511 167.555 29.0838C167.087 28.6164 166.852 28.0089 166.852 27.3079C166.852 26.6069 167.087 25.9994 167.555 25.5321C168.024 25.0647 168.587 24.8311 169.29 24.8311C169.993 24.8311 170.555 25.0647 171.024 25.5321C171.492 25.9994 171.727 26.6069 171.727 27.3079C171.727 28.0089 171.492 28.5697 171.024 29.0838ZM168.071 28.5697C168.399 28.8968 168.774 29.0838 169.243 29.0838C169.711 29.0838 170.133 28.8968 170.414 28.5697C170.743 28.2426 170.883 27.822 170.883 27.3079C170.883 26.7938 170.743 26.3732 170.414 26.0461C170.086 25.719 169.711 25.5321 169.243 25.5321C168.774 25.5321 168.352 25.719 168.071 26.0461C167.743 26.3732 167.602 26.7938 167.602 27.3079C167.602 27.822 167.743 28.2426 168.071 28.5697Z" fill="#232624"/>
<path d="M175.098 29.6918H174.348V24.925H175.004L177.722 28.3833V24.925H178.472V29.6918H177.816L175.098 26.2336V29.6918Z" fill="#232624"/>
<path d="M182.788 29.7848C182.039 29.7848 181.476 29.5978 181.007 29.2707V28.4762C181.195 28.6632 181.476 28.8034 181.804 28.8968C182.132 29.037 182.46 29.0838 182.788 29.0838C183.117 29.0838 183.398 29.037 183.585 28.8968C183.773 28.7566 183.913 28.6164 183.913 28.3828C183.913 28.1958 183.866 28.0556 183.679 27.9622C183.632 27.9154 183.538 27.8687 183.445 27.822C183.304 27.7752 183.07 27.6818 182.788 27.5883L182.695 27.5416C182.414 27.4481 182.226 27.4014 182.085 27.3546C181.945 27.3079 181.804 27.2144 181.617 27.121C181.289 26.934 181.101 26.6069 181.101 26.1396C181.101 25.7657 181.242 25.4386 181.57 25.2049C181.898 24.9713 182.32 24.8311 182.835 24.8311C183.398 24.8311 183.913 24.9713 184.382 25.2049V25.9526C183.913 25.6722 183.398 25.4853 182.882 25.4853C182.554 25.4853 182.32 25.5321 182.132 25.6723C181.945 25.7657 181.898 25.9527 181.898 26.0928C181.898 26.233 181.992 26.3732 182.179 26.5134C182.226 26.5134 182.226 26.5602 182.273 26.5602C182.32 26.5602 182.367 26.6069 182.46 26.6069C182.554 26.6069 182.554 26.6536 182.601 26.6536L183.163 26.7938C183.491 26.8873 183.773 27.0275 184.054 27.1677C184.476 27.4014 184.71 27.7752 184.71 28.2893C184.71 28.7099 184.523 29.0838 184.195 29.3174C183.726 29.6446 183.304 29.7848 182.788 29.7848Z" fill="#232624"/>
<path fill-rule="evenodd" clip-rule="evenodd" d="M50.1992 0.717529L50.3862 0.764657C50.3394 0.717529 50.246 0.717529 50.1992 0.717529Z" fill="#03A65A"/>
<path fill-rule="evenodd" clip-rule="evenodd" d="M2.15625 21.0464C2.24997 21.1866 2.39054 21.2801 2.53112 21.4203C2.39054 21.3268 2.24997 21.1866 2.15625 21.0464Z" fill="#03A65A"/>
<path fill-rule="evenodd" clip-rule="evenodd" d="M47.7156 3.89445C55.5427 3.70751 62.3856 4.36178 66.4163 5.53011C62.5262 3.38038 57.1831 1.74472 50.9496 0.810059C47.575 2.16532 46.2158 3.42711 47.7156 3.89445Z" fill="#03A65A"/>
<path fill-rule="evenodd" clip-rule="evenodd" d="M1.36257 20.0641C1.26911 19.9239 1.22237 19.8304 1.12891 19.6902C1.17564 19.8304 1.26911 19.9239 1.36257 20.0641Z" fill="#03A65A"/>
<path fill-rule="evenodd" clip-rule="evenodd" d="M68.9476 7.16627C65.4324 5.43715 56.4805 4.54922 46.4037 5.15675C33.8429 5.90448 24.141 8.70847 24.8441 11.3723C25.5471 13.9426 35.577 15.4848 47.4817 14.924C46.9661 14.9707 46.4506 15.0174 45.935 15.0174C31.6869 15.8586 19.4542 14.1295 18.6574 11.0919C17.8606 8.10093 28.7342 4.92308 42.8886 4.08188C43.7322 3.10049 46.4975 1.69849 50.0595 0.717098C45.7007 0.109567 40.9669 -0.124099 35.952 0.0628335C15.8453 0.763831 -0.277589 8.00747 0.00362345 16.2792C0.0504922 17.3541 0.378574 18.429 0.940999 19.4104C3.61252 22.3545 14.0174 24.2706 26.5782 23.9435C41.4356 23.5229 53.809 20.1114 54.1839 16.2792C54.512 12.6341 43.6385 9.92353 29.5778 10.0637C30.1871 10.017 30.7964 10.017 31.4057 10.017C48.1847 9.54966 61.5892 12.7275 61.1674 17.027C60.7924 20.8124 50.1532 24.2239 36.2801 25.3455C35.3427 26.7007 32.718 28.3831 29.2029 29.8786C31.7338 30.0188 34.3116 30.0188 36.9831 29.972C57.1367 29.271 73.2595 22.0274 72.9783 13.7556C72.9783 11.3255 71.5254 9.08233 68.9476 7.16627Z" fill="#03A65A"/>
<path fill-rule="evenodd" clip-rule="evenodd" d="M1.87791 20.766C1.78445 20.6258 1.69098 20.4856 1.55078 20.3921C1.69098 20.4856 1.78445 20.6258 1.87791 20.766Z" fill="#03A65A"/>
<path fill-rule="evenodd" clip-rule="evenodd" d="M29.019 29.8794C28.5035 29.8323 27.9881 29.8323 27.4727 29.7852C27.9881 29.8323 28.5035 29.8323 29.019 29.8794Z" fill="#03A65A"/>
<path fill-rule="evenodd" clip-rule="evenodd" d="M29.7192 25.673C18.0957 25.9534 8.11265 24.5046 3.33203 22.168C7.83143 26.0936 16.5959 28.8975 27.1882 29.7387C30.3284 27.9161 31.4064 26.3272 29.7192 25.673Z" fill="#03A65A"/>
<path fill-rule="evenodd" clip-rule="evenodd" d="M3.19518 22.0736C3.0546 21.9334 2.91403 21.8399 2.82031 21.6997C2.96089 21.8399 3.0546 21.9801 3.19518 22.0736Z" fill="#03A65A"/>
</svg>
